<svg width="348" height="16" viewBox="0 0 348 16" fill="none" xmlns="http://www.w3.org/2000/svg">
<path fill-rule="evenodd" clip-rule="evenodd" d="M109.365 13.7157C109.292 13.9166 109.251 14.1416 109.251 14.379C109.251 15.2311 109.779 15.9218 110.43 15.9218C126.08 15.9218 141.733 15.9392 157.385 15.9566C188.694 15.9915 220.004 16.0263 251.312 15.9218C253.802 15.9135 256.318 15.9365 258.851 15.9597C267.81 16.0417 276.974 16.1255 285.879 14.8306C286.559 14.7317 287.093 14.6377 287.482 14.5465C287.674 14.5014 287.854 14.4518 288.009 14.3945C288.086 14.3659 288.175 14.3285 288.266 14.2789C288.341 14.238 288.495 14.1479 288.646 13.9797C288.779 13.8321 289.149 13.3465 289.074 12.5616C289.006 11.8533 288.622 11.5025 288.52 11.4151C288.283 11.212 288.018 11.138 287.922 11.111L287.919 11.1103C287.64 11.0322 287.255 10.9775 286.828 10.9338C285.087 10.7556 281.668 10.6714 277.63 10.6351C272.474 10.5888 266.21 10.6207 260.952 10.6474C257.955 10.6627 255.284 10.6763 253.331 10.6728C228.604 10.6286 203.876 10.6114 179.148 10.6088C201.293 9.89142 223.437 9.0142 245.574 7.88682C271.148 7.72959 295.28 7.58247 314.952 7.46253C327.736 7.3846 338.637 7.31814 346.827 7.26785C347.478 7.26385 348.003 6.5699 348 5.71786C347.997 4.86583 347.467 4.17836 346.816 4.18236C338.626 4.23265 327.726 4.2991 314.942 4.37704C310.625 4.40336 306.094 4.43098 301.38 4.45973C302.284 4.39388 303.188 4.32749 304.091 4.26055C311.795 3.68982 315.729 3.3633 317.115 3.20238C317.29 3.18207 317.435 3.16324 317.547 3.14566C317.602 3.13698 317.658 3.12708 317.711 3.11558L317.715 3.11482C317.745 3.10822 317.859 3.08388 317.978 3.02742C318.014 3.01003 318.089 2.97239 318.175 2.9064C318.229 2.86521 318.46 2.68966 318.618 2.31387C318.685 2.12405 318.761 1.68173 318.76 1.436C318.73 1.19873 318.605 0.794759 318.522 0.63109C318.338 0.315557 318.114 0.185392 318.06 0.15367C317.918 0.0711958 317.792 0.0438225 317.764 0.0376923L317.761 0.0371296C317.713 0.0264742 317.671 0.0207245 317.644 0.0174753C317.545 0.00565072 317.423 0.00224418 317.314 0.000842273C316.851 -0.00513921 315.911 0.0222045 314.679 0.0699548C311.264 0.202281 305.394 0.50051 300.356 0.756427C298.078 0.872133 295.971 0.979188 294.338 1.05835C247.255 3.34059 200.127 4.62272 152.997 5.37824C123.696 5.56438 97.423 5.73613 79.1982 5.86505C53.7719 6.04493 40.2373 6.16129 34.3818 6.23371C32.9185 6.2518 31.9312 6.2672 31.3571 6.28022C31.0761 6.28658 30.8772 6.29271 30.7709 6.29924C30.7471 6.3007 30.7058 6.30343 30.6638 6.30885L30.6629 6.30896C30.6532 6.31014 30.5797 6.31904 30.4942 6.34589C30.4204 6.37236 30.1449 6.53691 29.9644 6.71785C29.6074 7.57332 29.9414 8.94797 30.2591 9.23935C30.3586 9.29456 30.5067 9.35235 30.5531 9.36495C30.5793 9.37104 30.6219 9.37924 30.6397 9.38207C30.6726 9.38706 30.7007 9.38959 30.7149 9.39079C30.7466 9.39346 30.7799 9.39516 30.8079 9.39636C31.2192 9.41408 33.0271 9.42195 35.6576 9.42393C46.2423 9.4319 70.6842 9.34216 75.2616 9.31112C96.3503 9.16811 117.445 8.97178 138.541 8.67967C127.082 8.96731 115.624 9.22693 104.165 9.47105C75.2631 10.0868 59.9185 10.3153 31.7166 10.5526C25.1084 10.6082 18.5004 10.633 11.8898 10.6577C10.5721 10.6627 9.25421 10.6676 7.93625 10.6728L1.14203 10.6728C0.86203 10.6728 0.7146 10.6729 0.683075 10.6732L0.669709 10.6734C0.669068 10.6734 0.65802 10.6736 0.644471 10.6742C0.633606 10.6747 0.590058 10.6783 0.557404 10.6824C-0.289459 11.35 -0.0760496 13.3929 0.56305 13.7503C0.593079 13.7539 0.633423 13.7572 0.643769 13.7578L0.660706 13.7584L0.672974 13.7587L0.683777 13.7588L0.73056 13.7591L0.927887 13.7596C1.28241 13.7603 1.99081 13.7611 2.84045 13.7616C4.53815 13.7628 6.80414 13.7628 7.93982 13.7583L10.5095 13.7583C37.4906 13.7583 64.4712 13.7422 91.4516 13.7262C97.4227 13.7226 103.394 13.719 109.365 13.7157ZM317.319 0.0728666C317.333 0.0693991 317.336 0.0693294 317.324 0.0718767C317.323 0.0720608 317.322 0.0723926 317.319 0.0728666ZM287.462 14.1395C287.462 14.1398 287.454 14.1373 287.44 14.1315C287.456 14.1364 287.463 14.1393 287.462 14.1395Z" fill="#5781EB"/>
</svg>